<mxfile host="app.diagrams.net" modified="2024-05-12T18:34:28.052Z" agent="Mozilla/5.0 (Windows NT 10.0; Win64; x64) AppleWebKit/537.36 (KHTML, like Gecko) Chrome/123.0.0.0 Safari/537.36 Avast/123.0.0.0" version="23.1.5" etag="_H-2gIM_eJwGdVC-cskE" type="github">
  <diagram name="PÃ¡gina-1" id="mU-bjHAU85ykJhgogV5R">
    <mxGraphModel>
      <root>
        <mxCell id="0" />
        <mxCell id="1" parent="0" />
      </root>
    </mxGraphModel>
  </diagram>
</mxfile>
